# xmcd CD database file generated by Grip 3.2.0
# 
# Track frame offsets:
#       150
#       19263
#       31688
#       45678
#       68820
#       91838
#       108325
#       129913
#       149288
# 
# Disc length: 2220 seconds
# 
# Revision: 1
# Processed by: cddbd v1.5.2PL0 Copyright (c) Steve Scherf et al.
# Submitted via: Grip 3.2.0
# 
DISCID=6d08aa09
DTITLE=B. B. King - Blues and Jazz
DYEAR=1900
DGENRE=Blues
TTITLE0=Inflation Blues
TTITLE1=Broken Heart
TTITLE2=Sell My Monkey
TTITLE3=Heed My warning
TTITLE4=Teardrops From My Eyes
TTITLE5=Rainbow Riot
TTITLE6=Darlin' You Know I Love You
TTITLE7=Make Love to Me
TTITLE8=I Can't Let You Go
EXTD=
EXTT0=
EXTT1=
EXTT2=
EXTT3=
EXTT4=
EXTT5=
EXTT6=
EXTT7=
EXTT8=
PLAYORDER=
